<svg width="390" height="844" viewBox="0 0 390 844" xmlns="http://www.w3.org/2000/svg">
  <rect width="390" height="844" fill="#1a1a26"/>

  <!-- Header -->
  <rect x="0" y="0" width="390" height="52" fill="#1a1a26" opacity="0.95"/>
  <line x1="0" y1="52" x2="390" y2="52" stroke="rgba(255,255,255,0.04)" stroke-width="1"/>
  <rect x="16" y="10" width="36" height="32" rx="16" fill="rgba(255,255,255,0.06)"/>
  <text x="34" y="32" text-anchor="middle" fill="#fff" font-size="16" font-weight="600">✕</text>
  <text x="195" y="32" text-anchor="middle" fill="#fff" font-size="17" font-weight="700" font-family="system-ui">Dole du Jura</text>
  <rect x="338" y="10" width="36" height="32" rx="16" fill="rgba(255,255,255,0.06)"/>
  <text x="356" y="32" text-anchor="middle" fill="#fff" font-size="16">✎</text>

  <!-- Mini-map -->
  <rect x="16" y="64" width="358" height="100" rx="12" fill="#2d4a3a"/>
  <circle cx="160" cy="114" r="12" fill="#22c55e" stroke="rgba(255,255,255,0.3)" stroke-width="2"/>
  <text x="160" y="118" text-anchor="middle" font-size="11">🏕️</text>
  <circle cx="220" cy="100" r="10" fill="#3b82f6" stroke="rgba(255,255,255,0.3)" stroke-width="1.5"/>
  <text x="220" y="103" text-anchor="middle" font-size="9">🥾</text>
  <circle cx="120" cy="90" r="10" fill="#8b5cf6" stroke="rgba(255,255,255,0.3)" stroke-width="1.5"/>
  <text x="120" y="93" text-anchor="middle" font-size="9">🍽️</text>

  <!-- Address -->
  <rect x="16" y="176" width="358" height="24" rx="6" fill="rgba(255,255,255,0.04)"/>
  <text x="24" y="192" fill="rgba(255,255,255,0.5)" font-size="12" font-family="system-ui">📍 39100 Dole, France</text>

  <!-- Dates row -->
  <rect x="16" y="212" width="172" height="40" rx="8" fill="rgba(255,255,255,0.03)"/>
  <text x="24" y="226" fill="rgba(255,255,255,0.3)" font-size="9" font-family="system-ui" letter-spacing="0.3">ARRIVÉE</text>
  <text x="24" y="242" fill="#fff" font-size="13" font-weight="600" font-family="system-ui">31 juil. 15:00</text>
  <rect x="200" y="212" width="174" height="40" rx="8" fill="rgba(255,255,255,0.03)"/>
  <text x="208" y="226" fill="rgba(255,255,255,0.3)" font-size="9" font-family="system-ui" letter-spacing="0.3">DÉPART</text>
  <text x="208" y="242" fill="#fff" font-size="13" font-weight="600" font-family="system-ui">01 août 11:00</text>

  <!-- HÉBERGEMENTS -->
  <text x="16" y="286" fill="rgba(255,255,255,0.3)" font-size="10" font-family="system-ui" font-weight="700" letter-spacing="0.5">HÉBERGEMENTS</text>
  <!-- Card 1 -->
  <rect x="16" y="296" width="358" height="52" rx="10" fill="rgba(255,255,255,0.03)" stroke="rgba(255,255,255,0.04)" stroke-width="1"/>
  <rect x="24" y="304" width="36" height="36" rx="8" fill="rgba(34,197,94,0.1)"/>
  <text x="42" y="328" text-anchor="middle" font-size="16">🏕️</text>
  <text x="70" y="318" fill="#fff" font-size="13" font-weight="600" font-family="system-ui">Camping des Bords de Loue</text>
  <text x="70" y="334" fill="rgba(255,255,255,0.4)" font-size="10" font-family="system-ui">Réservation 18483538 · 59€</text>
  <rect x="296" y="306" width="66" height="20" rx="5" fill="rgba(34,197,94,0.1)"/>
  <text x="329" y="320" text-anchor="middle" fill="#4ade80" font-size="8" font-weight="600" font-family="system-ui">✅ Résa OK</text>
  <!-- Card 2 (optional, second accommodation) -->
  <rect x="16" y="354" width="358" height="46" rx="10" fill="rgba(255,255,255,0.03)" stroke="rgba(255,255,255,0.04)" stroke-width="1"/>
  <rect x="24" y="360" width="32" height="32" rx="8" fill="rgba(59,130,246,0.1)"/>
  <text x="40" y="382" text-anchor="middle" font-size="14">🏠</text>
  <text x="64" y="376" fill="#fff" font-size="12" font-weight="600" font-family="system-ui">Gîte Le Vieux Dole</text>
  <text x="64" y="390" fill="rgba(255,255,255,0.4)" font-size="10" font-family="system-ui">Rue des Arènes</text>
  <rect x="290" y="362" width="72" height="18" rx="5" fill="rgba(245,158,11,0.1)"/>
  <text x="326" y="375" text-anchor="middle" fill="#fbbf24" font-size="8" font-weight="600" font-family="system-ui">Provisoire</text>

  <!-- ACTIVITÉS -->
  <text x="16" y="430" fill="rgba(255,255,255,0.3)" font-size="10" font-family="system-ui" font-weight="700" letter-spacing="0.5">ACTIVITÉS</text>
  <!-- Activity 1 -->
  <rect x="16" y="440" width="358" height="38" rx="8" fill="rgba(255,255,255,0.03)" stroke="rgba(255,255,255,0.04)" stroke-width="1"/>
  <rect x="22" y="445" width="28" height="28" rx="6" fill="rgba(59,130,246,0.1)"/>
  <text x="36" y="465" text-anchor="middle" font-size="12">🥾</text>
  <text x="58" y="458" fill="#fff" font-size="12" font-weight="600" font-family="system-ui">Balade en ville</text>
  <text x="58" y="470" fill="rgba(255,255,255,0.4)" font-size="9" font-family="system-ui">Centre historique de Dole</text>
  <rect x="296" y="444" width="66" height="18" rx="5" fill="rgba(245,158,11,0.1)"/>
  <text x="329" y="457" text-anchor="middle" fill="#fbbf24" font-size="8" font-weight="600" font-family="system-ui">À planifier</text>
  <!-- Activity 2 -->
  <rect x="16" y="482" width="358" height="38" rx="8" fill="rgba(255,255,255,0.03)" stroke="rgba(255,255,255,0.04)" stroke-width="1"/>
  <rect x="22" y="487" width="28" height="28" rx="6" fill="rgba(245,158,11,0.1)"/>
  <text x="36" y="507" text-anchor="middle" font-size="12">🍽️</text>
  <text x="58" y="500" fill="#fff" font-size="12" font-weight="600" font-family="system-ui">Dîner Chez Julien</text>
  <text x="58" y="512" fill="rgba(255,255,255,0.4)" font-size="9" font-family="system-ui">Rue du centre · réservation 19h</text>
  <rect x="296" y="486" width="66" height="18" rx="5" fill="rgba(34,197,94,0.1)"/>
  <text x="329" y="499" text-anchor="middle" fill="#4ade80" font-size="8" font-weight="600" font-family="system-ui">✅ Réservé</text>
  <!-- Activity 3 -->
  <rect x="16" y="524" width="358" height="38" rx="8" fill="rgba(255,255,255,0.03)" stroke="rgba(255,255,255,0.04)" stroke-width="1"/>
  <rect x="22" y="529" width="28" height="28" rx="6" fill="rgba(139,92,246,0.1)"/>
  <text x="36" y="549" text-anchor="middle" font-size="12">🎯</text>
  <text x="58" y="542" fill="#fff" font-size="12" font-weight="600" font-family="system-ui">Visite Musée des Beaux-Arts</text>
  <text x="58" y="554" fill="rgba(255,255,255,0.4)" font-size="9" font-family="system-ui">Entrée 8€</text>
  <rect x="296" y="528" width="66" height="18" rx="5" fill="rgba(34,197,94,0.1)"/>
  <text x="329" y="541" text-anchor="middle" fill="#4ade80" font-size="8" font-weight="600" font-family="system-ui">✅ Réservé</text>

  <!-- NOTES -->
  <text x="16" y="592" fill="rgba(255,255,255,0.3)" font-size="10" font-family="system-ui" font-weight="700" letter-spacing="0.5">NOTES</text>
  <rect x="16" y="602" width="358" height="46" rx="8" fill="rgba(255,255,255,0.03)"/>
  <text x="24" y="622" fill="rgba(255,255,255,0.5)" font-size="12" font-family="system-ui">Arrivée prévue vers 15h. Faire les courses à</text>
  <text x="24" y="638" fill="rgba(255,255,255,0.5)" font-size="12" font-family="system-ui">l'Intermarche avant l'arrivée au camping.</text>

  <!-- Actions -->
  <rect x="16" y="670" width="172" height="40" rx="10" fill="rgba(255,255,255,0.06)"/>
  <text x="102" y="695" text-anchor="middle" fill="#fff" font-size="12" font-weight="600" font-family="system-ui">🗺️ Voir sur la carte</text>
  <rect x="200" y="670" width="174" height="40" rx="10" fill="#f59e0b"/>
  <text x="287" y="695" text-anchor="middle" fill="#1a1a26" font-size="12" font-weight="700" font-family="system-ui">🔄 Étape suivante</text>

  <!-- Footer annotation -->
  <rect x="0" y="790" width="390" height="54" fill="#1a1a26" opacity="0.95"/>
  <text x="195" y="812" text-anchor="middle" fill="rgba(255,255,255,0.4)" font-size="10" font-family="system-ui">Écran 4/4 • Détail d'étape (modal)</text>
  <text x="195" y="828" text-anchor="middle" fill="rgba(255,255,255,0.3)" font-size="9" font-family="system-ui">Adresse · Dates · Hébergements · Activités · Notes</text>
</svg>
